<?xml version="1.0" encoding="utf-8"?>
<!-- Generator: Adobe Illustrator 25.0.0, SVG Export Plug-In . SVG Version: 6.00 Build 0)  -->
<svg version="1.1" id="Capa_1" xmlns="http://www.w3.org/2000/svg" xmlns:xlink="http://www.w3.org/1999/xlink" x="0px" y="0px"
	 viewBox="0 0 480.7 480.7" style="enable-background:new 0 0 480.7 480.7;" xml:space="preserve">
<style type="text/css">
	.st0{fill:#B70B0B;}
	.st1{fill:#3D0303;}
</style>
<g>
	<g>
		<polygon class="st0" points="381.6,75.8 297.4,167.2 381.6,258.6 128.2,258.6 119.3,258.6 119.3,75.8 128.2,75.8 		"/>
		<circle class="st0" cx="119.3" cy="31.3" r="20.9"/>
	</g>
	<path class="st1" d="M311.6,167.2l77.8-84.1c2.7-2.5,3.5-6.5,2.1-9.9c-1.9-3.6-5.9-5.7-9.9-5.2H130.3v-7.3
		c11.9-4.9,19.9-16.4,20.4-29.3c0-17.3-14-31.3-31.3-31.3c-17,0-30.8,13.8-30.8,30.8c0,0.2,0,0.4,0,0.5c0.7,13,8.8,24.4,20.9,29.3
		v409.6c0,5.8,4.7,10.4,10.4,10.4s10.4-4.7,10.4-10.4V271.7h251.3c4.3-0.6,8-3.4,9.9-7.3c1.4-4.1,0.6-8.6-2.1-12L311.6,167.2z
		 M119.3,20.9c5.8,0,10.4,4.7,10.4,10.4s-4.7,10.4-10.4,10.4c-5.8,0-10.4-4.7-10.4-10.4S113.5,20.9,119.3,20.9z M130.3,250.8v-162
		h227.8l-67.9,72.6c-3.7,4.2-3.7,10.5,0,14.6l67.9,74.7L130.3,250.8L130.3,250.8z"/>
</g>
</svg>
